#!OML:ASF H:\GeneralSubjects\Female5\Project 1\Capture day 1\Session 1\Female5.ASF
:FULLY-SPECIFIED
:DEGREES
365
root -11.5131 15.781 0.76988 178.373 -53.9129 -166.438
lowerback 8.339 1.09335 7.14821
upperback -9.17377 2.6232 4.34026
thorax -14.8264 0.559546 0.37032
lowerneck -14.4269 -2.58575 -5.73981
upperneck 46.4711 -10.9158 6.08228
head 22.8998 -5.95847 1.294
rclavicle 6.11263e-014 -3.10104e-014
rhumerus -33.0731 29.3349 -81.8864
rradius 32.0523
rwrist -14.4583
rhand -21.3792 -24.0283
rfingers 7.12502
rthumb 5.00818 -53.9491
lclavicle 6.11263e-014 -3.10104e-014
lhumerus -37.5763 -19.2432 100.574
lradius 41.6982
lwrist -1.29923
lhand -32.7089 33.5931
lfingers 7.12502
lthumb -5.93317 63.49
rfemur -11.2479 10.3583 38.939
rtibia 8.12473
rfoot -17.6671 -11.9156
rtoes 3.14093
lfemur -26.5468 -8.20414 -6.47924
ltibia 49.6362
lfoot -15.0952 14.7349
ltoes -68.8771
366
root -11.5997 15.7831 0.81595 178.713 -52.258 -166.862
lowerback 8.29665 1.11966 7.16397
upperback -9.08051 2.64516 4.32414
thorax -14.6824 0.571112 0.335948
lowerneck -14.5796 -2.51622 -5.7329
upperneck 46.3939 -10.8547 6.13313
head 22.8871 -5.9409 1.32134
rclavicle 3.47873e-014 -4.77083e-014
rhumerus -33.147 29.1841 -81.8983
rradius 31.777
rwrist -13.9465
rhand -22.0604 -23.8965
rfingers 7.12502
rthumb 4.35047 -53.8318
lclavicle 3.47873e-014 -4.77083e-014
lhumerus -37.8357 -18.5855 100.352
lradius 40.4937
lwrist -1.89669
lhand -28.855 34.2337
lfingers 7.12502
lthumb -2.21164 64.202
rfemur -11.0557 10.7644 38.7694
rtibia 8.34973
rfoot -17.2208 -11.3689
rtoes 1.18478
lfemur -26.6732 -9.89967 -5.40312
ltibia 49.3199
lfoot -14.7528 13.3819
ltoes -68.7309
367
root -11.6809 15.7926 0.858981 178.816 -50.4876 -167.258
lowerback 8.60695 1.1456 7.00689
upperback -9.00126 2.69081 4.35478
thorax -14.7895 0.610103 0.442396
lowerneck -14.5435 -2.44337 -5.71832
upperneck 46.2795 -10.8302 6.22355
head 22.7757 -5.943 1.36474
rclavicle 8.95525e-014 5.56597e-015
rhumerus -33.32 28.9577 -81.8628
rradius 31.3618
rwrist -13.2801
rhand -21.5923 -24.2568
rfingers 7.12502
rthumb 4.80249 -54.1824
lclavicle 8.95525e-014 5.56597e-015
lhumerus -38.074 -17.7331 100.082
lradius 39.0234
lwrist -2.21976
lhand -27.7497 34.4691
lfingers 7.12502
lthumb -1.1442 64.4458
rfemur -10.5586 11.2155 38.709
rtibia 8.41081
rfoot -16.6323 -10.772
rtoes -0.604199
lfemur -26.3322 -11.3434 -4.36047
ltibia 48.7636
lfoot -13.7213 11.9556
ltoes -69.2809
368
root -11.7794 15.7907 0.905493 179.089 -48.6156 -167.605
lowerback 8.59722 1.20187 7.0065
upperback -9.00241 2.7549 4.35055
thorax -14.7809 0.635363 0.425906
lowerneck -14.4166 -2.31884 -5.62852
upperneck 46.1056 -10.6601 6.2219
head 22.5285 -5.88681 1.38249
rclavicle 6.2816e-014 -6.59965e-014
rhumerus -33.8016 29 -82.0585
rradius 31.0296
rwrist -13.1814
rhand -21.2225 -24.0817
rfingers 7.12502
rthumb 5.1595 -53.9989
lclavicle 6.2816e-014 -6.59965e-014
lhumerus -38.2981 -16.5974 99.63
lradius 37.4518
lwrist -2.44173
lhand -25.8789 33.5146
lfingers 7.12502
lthumb 0.662747 63.4933
rfemur -10.3003 11.6091 38.5583
rtibia 8.47761
rfoot -16.0008 -9.80585
rtoes -0.0925921
lfemur -26.0441 -12.7243 -3.35581
ltibia 47.9832
lfoot -12.5303 9.823
ltoes -69.7013
369
root -11.8717 15.7914 0.958802 179.214 -46.7808 -167.739
lowerback 8.67973 1.23847 7.08815
upperback -9.01398 2.81729 4.37665
thorax -14.8439 0.650089 0.39841
lowerneck -14.1544 -2.14595 -5.5629
upperneck 45.7709 -10.4612 6.447
head 22.1279 -5.7956 1.5388
rclavicle -6.04305e-014 -4.13472e-014
rhumerus -34.3653 29.0893 -82.316
rradius 30.7373
rwrist -13.2212
rhand -20.8775 -24.2536
rfingers 7.12502
rthumb 5.49262 -54.1624
lclavicle -6.04305e-014 -4.13472e-014
lhumerus -38.4923 -15.3416 99.045
lradius 35.8438
lwrist -2.64776
lhand -24.8165 33.0586
lfingers 7.12502
lthumb 1.68883 63.0316
rfemur -10.1904 11.9489 38.5081
rtibia 8.67879
rfoot -15.5236 -8.73516
rtoes 1.06782
lfemur -25.7839 -13.9889 -2.23336
ltibia 47.1223
lfoot -11.5007 6.86053
ltoes -69.4954
370
root -11.965 15.7961 1.01194 179.398 -44.9187 -167.959
lowerback 8.74241 1.29734 6.94778
upperback -9.02837 2.87917 4.46377
thorax -14.9091 0.691932 0.562774
lowerneck -14.3655 -2.16897 -5.72127
upperneck 46.0158 -10.6935 6.47317
head 22.4831 -5.9548 1.50338
rclavicle 3.37934e-014 -6.67916e-014
rhumerus -34.8903 29.0711 -82.3792
rradius 30.3956
rwrist -12.9244
rhand -20.7352 -25.0913
rfingers 7.12502
rthumb 5.63006 -54.9965
lclavicle 3.37934e-014 -6.67916e-014
lhumerus -38.7687 -14.0997 98.541
lradius 34.1763
lwrist -2.83978
lhand -24.7468 32.9808
lfingers 7.12502
lthumb 1.75607 62.9533
rfemur -10.0801 12.5213 38.3571
rtibia 8.85593
rfoot -15.0895 -7.95717
rtoes 1.61399
lfemur -25.3066 -15.165 -1.36446
ltibia 45.988
lfoot -10.1444 4.48018
ltoes -69.0386
371
root -12.063 15.7973 1.06474 179.68 -43.0786 -168.334
lowerback 8.67847 1.32676 6.6725
upperback -8.982 2.86376 4.50661
thorax -14.8236 0.717119 0.76598
lowerneck -14.5538 -2.16462 -5.76927
upperneck 46.0598 -10.8755 6.59655
head 22.6522 -6.04939 1.51405
rclavicle 7.83212e-014 3.02153e-014
rhumerus -35.1637 28.9003 -82.2718
rradius 29.8859
rwrist -12.3491
rhand -20.8897 -25.3445
rfingers 7.12502
rthumb 5.48082 -55.2536
lclavicle 7.83212e-014 3.02153e-014
lhumerus -39.0217 -12.7572 97.8198
lradius 32.6207
lwrist -3.28656
lhand -24.323 33.1309
lfingers 7.12502
lthumb 2.16542 63.0997
rfemur -9.92381 13.2517 38.0622
rtibia 8.97509
rfoot -14.5818 -7.30868
rtoes 1.87484
lfemur -24.5797 -16.2563 -0.879853
ltibia 44.5549
lfoot -8.8617 2.08106
ltoes -67.5278
372
root -12.1602 15.797 1.12144 180.147 -41.2268 -168.973
lowerback 8.63643 1.32557 6.27219
upperback -8.94727 2.78469 4.39543
thorax -14.7622 0.719056 0.877595
lowerneck -14.7757 -2.07277 -5.74304
upperneck 46.1008 -11.0436 6.89948
head 22.8581 -6.10894 1.6092
rclavicle -2.32578e-014 4.77083e-015
rhumerus -35.3456 28.4833 -82.1723
rradius 29.3218
rwrist -11.7659
rhand -20.7127 -24.8524
rfingers 7.12502
rthumb 5.6517 -54.7571
lclavicle -2.32578e-014 4.77083e-015
lhumerus -39.4709 -11.1934 96.7357
lradius 31.4446
lwrist -4.13217
lhand -23.6438 33.7091
lfingers 7.12502
lthumb 2.82133 63.6702
rfemur -9.78122 13.9332 37.5514
rtibia 9.05893
rfoot -13.9181 -6.57988
rtoes 1.05215
lfemur -23.584 -17.2584 -0.858343
ltibia 43.0783
lfoot -7.74203 -0.0692518
ltoes -66.6762
373
root -12.2596 15.801 1.17595 180.463 -39.2866 -169.388
lowerback 8.57205 1.37324 5.97898
upperback -8.95264 2.78651 4.33721
thorax -14.7329 0.745672 0.97564
lowerneck -14.956 -1.94143 -5.84173
upperneck 46.2449 -11.2238 7.29207
head 23.185 -6.20415 1.77487
rclavicle -2.19657e-014 -3.33958e-014
rhumerus -35.6205 27.9586 -81.948
rradius 28.77
rwrist -11.3489
rhand -20.4141 -23.6847
rfingers 7.12502
rthumb 5.94003 -53.5814
lclavicle -2.19657e-014 -3.33958e-014
lhumerus -40.1827 -9.78537 95.7451
lradius 30.456
lwrist -4.9254
lhand -23.4736 34.084
lfingers 7.12502
lthumb 2.98572 64.0429
rfemur -9.58343 14.6177 37.2423
rtibia 9.03437
rfoot -13.0734 -5.88844
rtoes -0.726034
lfemur -22.37 -17.8352 -0.863745
ltibia 42.1243
lfoot -6.94124 -2.21382
ltoes -66.7401
374
root -12.3642 15.7977 1.23567 180.677 -37.4622 -169.399
lowerback 8.27493 1.41319 6.0681
upperback -8.98211 2.80665 4.36174
thorax -14.5751 0.741017 0.955675
lowerneck -14.9764 -1.83915 -5.93375
upperneck 46.1844 -11.2512 7.54645
head 23.1999 -6.24035 1.91075
rclavicle -2.8625e-014 7.15625e-015
rhumerus -35.8676 27.3549 -81.5636
rradius 28.2942
rwrist -10.9755
rhand -23.1522 -28.5674
rfingers 7.12502
rthumb 3.29608 -58.5217
lclavicle -2.8625e-014 7.15625e-015
lhumerus -40.8285 -8.80194 94.9457
lradius 29.3733
lwrist -5.32164
lhand -23.4519 34.0302
lfingers 7.12502
lthumb 3.00667 63.9888
rfemur -9.66874 15.3788 37.1048
rtibia 9.10185
rfoot -12.5099 -5.42823
rtoes -2.56945
lfemur -21.5112 -18.0556 -0.669368
ltibia 41.9017
lfoot -6.72071 -4.16242
ltoes -67.1777
375
root -12.4681 15.7965 1.29794 180.899 -35.7683 -169.631
lowerback 8.12975 1.364 5.94691
upperback -8.96697 2.69487 4.35241
thorax -14.4695 0.699294 1.03663
lowerneck -14.901 -1.81394 -5.9409
upperneck 45.9325 -11.285 7.69282
head 22.9632 -6.25973 1.97162
rclavicle -8.64713e-015 7.95139e-016
rhumerus -36.2226 26.9492 -81.3428
rradius 28.2151
rwrist -10.9778
rhand -22.6226 -28.7987
rfingers 7.12502
rthumb 3.80753 -58.7444
lclavicle -8.64713e-015 7.95139e-016
lhumerus -41.4111 -7.66881 93.9798
lradius 28.3927
lwrist -5.88928
lhand -23.1176 34.0152
lfingers 7.12502
lthumb 3.32955 63.969
rfemur -9.66164 16.1199 36.7659
rtibia 9.18187
rfoot -12.3998 -5.24337
rtoes -5.41031
lfemur -20.286 -18.2308 -1.00069
ltibia 41.3073
lfoot -7.04321 -5.57681
ltoes -67.4167
376
root -12.5773 15.7977 1.36005 181.082 -34.1513 -169.906
lowerback 8.01461 1.24591 5.79523
upperback -8.97277 2.48847 4.33879
thorax -14.411 0.614651 1.14885
lowerneck -14.8343 -1.73088 -6.00073
upperneck 45.8123 -11.3842 7.97455
head 22.902 -6.32136 2.09664
rclavicle 6.60959e-014 -7.15625e-015
rhumerus -36.7879 26.7566 -81.2862
rradius 28.3456
rwrist -11.2781
rhand -21.0999 -27.263
rfingers 7.12502
rthumb 5.27792 -57.1773
lclavicle 6.60959e-014 -7.15625e-015
lhumerus -42.195 -6.50347 92.9182
lradius 27.677
lwrist -6.53121
lhand -23.076 34.2632
lfingers 7.12502
lthumb 3.36971 64.2163
rfemur -9.52599 16.8579 36.3572
rtibia 9.12685
rfoot -12.2222 -5.05983
rtoes -7.61615
lfemur -18.5533 -18.2859 -1.65854
ltibia 39.915
lfoot -7.58346 -6.42459
ltoes -67.5274
377
root -12.6866 15.8018 1.42497 181.196 -32.4858 -169.975
lowerback 7.89854 1.15512 5.83469
upperback -9.04077 2.3428 4.35381
thorax -14.421 0.533258 1.17824
lowerneck -14.6872 -1.58835 -5.93365
upperneck 45.8029 -11.3467 8.01592
head 22.8258 -6.34531 2.09994
rclavicle -5.1684e-015 1.66979e-014
rhumerus -37.4285 26.2357 -81.0148
rradius 28.3408
rwrist -11.2466
rhand -20.4452 -26.7752
rfingers 7.12502
rthumb 5.91003 -56.6727
lclavicle -5.1684e-015 1.66979e-014
lhumerus -43.0227 -5.68165 91.9643
lradius 26.9583
lwrist -7.00703
lhand -23.0877 34.5132
lfingers 7.12502
lthumb 3.35839 64.4665
rfemur -9.48581 17.7848 36.1025
rtibia 9.11979
rfoot -11.7169 -4.5316
rtoes -6.95021
lfemur -16.5175 -18.0514 -2.2375
ltibia 38.0179
lfoot -8.45238 -6.68124
ltoes -68.2977
378
root -12.7929 15.8063 1.49272 181.397 -30.9072 -170.15
lowerback 7.74613 1.08479 5.73204
upperback -9.06519 2.20254 4.32759
thorax -14.3565 0.472084 1.23616
lowerneck -14.58 -1.5439 -5.62906
upperneck 45.7169 -11.2712 7.68382
head 22.5923 -6.32604 1.86519
rclavicle 2.127e-014 -9.06458e-014
rhumerus -37.8783 25.2739 -80.3792
rradius 28.1787
rwrist -11.0879
rhand -20.2964 -26.0941
rfingers 7.12502
rthumb 6.0537 -55.9876
lclavicle 2.127e-014 -9.06458e-014
lhumerus -43.5406 -4.52181 90.8131
lradius 26.1592
lwrist -7.94854
lhand -22.3523 34.7506
lfingers 7.12502
lthumb 4.06855 64.6915
rfemur -9.55045 18.667 35.6979
rtibia 9.13819
rfoot -11.1778 -3.81265
rtoes -5.40613
lfemur -14.3539 -17.8697 -3.03933
ltibia 35.8485
lfoot -9.6726 -6.39223
ltoes -69.2206
379
root -12.9007 15.8084 1.56432 181.652 -29.2889 -170.364
lowerback 7.50911 1.07988 5.57896
upperback -9.03043 2.13772 4.29337
thorax -14.1659 0.455835 1.2948
lowerneck -14.5484 -1.52326 -5.56044
upperneck 45.5327 -11.3254 7.75335
head 22.4273 -6.34776 1.86397
rclavicle -2.26615e-014 2.66371e-014
rhumerus -37.9411 23.6878 -79.2704
rradius 27.7544
rwrist -10.6929
rhand -20.0254 -25.1339
rfingers 7.12502
rthumb 6.31526 -55.0197
lclavicle -2.26615e-014 2.66371e-014
lhumerus -43.9052 -2.99343 89.4775
lradius 25.4002
lwrist -9.19596
lhand -21.7483 34.6873
lfingers 7.12502
lthumb 4.65183 64.6162
rfemur -9.70101 19.4014 35.2066
rtibia 9.14189
rfoot -10.7061 -3.09163
rtoes -5.10487
lfemur -12.0053 -17.594 -4.03616
ltibia 33.2883
lfoot -11.1057 -5.7263
ltoes -69.5933
